<?xml version="1.0" standalone="no"?>
<!DOCTYPE svg PUBLIC "-//W3C//DTD SVG 20010904//EN"
 "http://www.w3.org/TR/2001/REC-SVG-20010904/DTD/svg10.dtd">
<svg version="1.0" xmlns="http://www.w3.org/2000/svg"
 width="1067.000000pt" height="1067.000000pt" viewBox="0 0 1067.000000 1067.000000"
 preserveAspectRatio="xMidYMid meet">

<g transform="translate(0.000000,1067.000000) scale(0.100000,-0.100000)"
fill="#000000" stroke="none">
<path d="M4950 10209 c-1041 -88 -1968 -469 -2770 -1137 -148 -124 -458 -434
-582 -582 -678 -814 -1062 -1762 -1139 -2809 -15 -205 -7 -685 15 -871 101
-860 390 -1620 876 -2304 467 -658 1070 -1174 1800 -1539 555 -279 1103 -435
1745 -499 199 -20 722 -17 925 5 926 101 1750 425 2474 975 353 269 711 632
972 987 241 328 459 717 603 1078 165 410 276 865 328 1337 22 203 25 726 5
925 -64 642 -220 1190 -499 1745 -365 730 -881 1333 -1539 1800 -684 486
-1441 774 -2304 876 -159 19 -746 27 -910 13z m675 -289 c1312 -87 2495 -708
3315 -1740 99 -125 308 -434 385 -570 529 -932 716 -2019 530 -3080 -124 -703
-420 -1381 -855 -1959 -535 -710 -1267 -1249 -2112 -1557 -849 -309 -1818
-353 -2708 -123 -704 182 -1362 535 -1915 1028 -1087 970 -1650 2430 -1500
3886 131 1269 782 2425 1802 3198 869 658 1973 989 3058 917z"/>
<path d="M5070 9634 c-19 -2 -91 -9 -160 -15 -808 -71 -1610 -399 -2280 -933
-161 -128 -518 -485 -646 -646 -525 -658 -831 -1394 -930 -2230 -18 -152 -30
-698 -16 -718 7 -10 48 -4 193 29 505 112 1160 227 1619 284 69 8 139 17 156
20 l31 5 12 123 c37 378 157 726 359 1032 188 286 391 489 677 677 576 378
1305 472 1973 253 318 -105 616 -284 861 -520 407 -391 649 -892 700 -1453 5
-57 12 -106 14 -109 3 -2 117 -19 253 -38 544 -74 1015 -157 1533 -271 112
-25 206 -42 210 -39 13 14 4 531 -13 685 -58 537 -189 993 -421 1465 -209 424
-445 759 -775 1099 -700 721 -1595 1160 -2610 1282 -127 15 -653 28 -740 18z"/>
<path d="M5170 7334 c-14 -2 -65 -9 -115 -15 -203 -25 -472 -112 -665 -216
-862 -464 -1264 -1472 -955 -2399 171 -515 547 -940 1037 -1174 470 -224 992
-257 1488 -94 683 225 1204 814 1339 1516 82 424 26 856 -159 1246 -300 629
-904 1055 -1602 1131 -91 10 -311 13 -368 5z m273 -1469 c194 -41 354 -191
411 -384 20 -70 21 -209 0 -286 -44 -172 -207 -335 -379 -380 -77 -20 -216
-19 -286 1 -193 57 -343 217 -384 411 -18 86 -18 130 0 218 44 207 210 375
415 419 85 19 140 19 223 1z m-916 -738 c16 -73 69 -187 122 -266 115 -169
309 -297 516 -342 88 -19 275 -16 360 6 304 77 550 319 616 608 l14 57 428 0
428 0 -7 -52 c-12 -100 -56 -283 -91 -378 -85 -231 -214 -431 -393 -610 -63
-63 -158 -145 -210 -182 -509 -360 -1172 -413 -1723 -137 -189 94 -322 194
-475 354 -244 256 -410 605 -448 943 l-7 62 428 -2 428 -3 14 -58z"/>
<path d="M7611 5046 c-51 -401 -206 -777 -454 -1106 -92 -122 -305 -335 -427
-427 -322 -243 -665 -387 -1070 -449 -158 -25 -489 -25 -655 0 -859 126 -1577
726 -1849 1544 -46 140 -90 335 -102 455 -8 81 13 77 -251 42 -544 -74 -957
-150 -1682 -308 l-53 -12 6 -65 c19 -193 118 -589 211 -843 384 -1061 1172
-1935 2180 -2418 460 -221 945 -355 1480 -410 178 -19 637 -16 822 4 1013 112
1901 535 2608 1242 643 643 1056 1446 1205 2343 13 77 19 137 14 142 -21 20
-723 164 -1139 234 -236 40 -558 87 -766 114 l-67 8 -11 -90z"/>
</g>
</svg>
